<svg width="32" height="32" viewBox="0 0 32 32" fill="none" xmlns="http://www.w3.org/2000/svg">
  <defs>
    <linearGradient id="gt_logo_grad" x1="3.5" y1="29.5" x2="28.5" y2="2.5" gradientUnits="userSpaceOnUse">
      <stop offset="0%" stop-color="#24343C"/>
      <stop offset="18%" stop-color="#0077A3"/>
      <stop offset="40%" stop-color="#009FE3"/>
      <stop offset="60%" stop-color="#01B3B1"/>
      <stop offset="80%" stop-color="#A7CC58"/>
      <stop offset="100%" stop-color="#CED700"/>
    </linearGradient>
  </defs>

  <!-- Globe Core Sphere & Meridians -->
  <g fill="none" stroke="url(#gt_logo_grad)" stroke-linecap="round" stroke-linejoin="round">
    <!-- Outer Globe Boundary -->
    <circle cx="16" cy="16" r="12.5" stroke-width="2.2" />

    <!-- Longitude Curves -->
    <ellipse cx="16" cy="16" rx="5.8" ry="12.5" stroke-width="1.6" opacity="0.9" />
    <path d="M 16 3.5 V 28.5" stroke-width="1.8" opacity="0.95" />

    <!-- Latitude Curves -->
    <path d="M 4.5 11 C 7.5 13.2 24.5 13.2 27.5 11" stroke-width="1.4" opacity="0.8" />
    <path d="M 3.5 16 H 28.5" stroke-width="1.8" opacity="0.95" />
    <path d="M 4.5 21 C 7.5 18.8 24.5 18.8 27.5 21" stroke-width="1.4" opacity="0.8" />

    <!-- 4th Dimension Temporal Orbital Arc -->
    <path d="M 2.5 20.5 C 3.5 9.5 20.5 1.5 29.5 9.5 C 27.5 21.5 10.5 29.5 2.5 20.5 Z" stroke-width="2.2" fill="none" />
  </g>

  <!-- 4D Geospatial Data Nodes -->
  <circle cx="16" cy="16" r="2" fill="url(#gt_logo_grad)" />
  <circle cx="21.8" cy="9.8" r="1.6" fill="#01B3B1" />
  <circle cx="10.2" cy="22.2" r="1.6" fill="#A7CC58" />
  <circle cx="26" cy="16" r="1.4" fill="#CED700" />
</svg>
